{"title":"\nIT 2017 Movies HC 720p HDRip XviD AAC with Sample ☻rDX☻","magnet":"magnet:?xt=urn:btih:fe902c46e59e3f9ec567985cfabc73401cdb6f24&dn=IT+2017+Movies+HC+720p+HDRip+XviD+AAC+with+Sample+%E2%98%BBrDX%E2%98%BB&tr=udp%3A%2F%2Ftracker.leechers-paradise.org%3A6969&tr=udp%3A%2F%2Fzer0day.ch%3A1337&tr=udp%3A%2F%2Fopen.demonii.com%3A1337&tr=udp%3A%2F%2Ftracker.coppersurfer.tk%3A6969&tr=udp%3A%2F%2Fexodus.desync.com%3A6969","uploader":"basicssom","categoryP":"video","categoryS":"hd___movies","size":"1164567839","seeders":"2","leechers":"289","description":"----------------------------------------------------------------\r\nIT 2017 Movies HC 720p HDRip XviD AAC with Sample &#x263B;rDX&#x263B;\r\n\r\nSCREEN SHOTS &amp; POSTER:\r\n   <a href=\"\nhttp://postimage.co.nr/2017/10/popular/index.html\" rel=\"nofollow\" target=\"_NEW\">\nhttp://postimage.co.nr/2017/10/popular/index.html</a>  <a href=\"\nhttp://postimage.co.nr/2017/10/popular/1.html\" rel=\"nofollow\" target=\"_NEW\">\nhttp://postimage.co.nr/2017/10/popular/1.html</a>   <a href=\"\nhttp://postimage.co.nr/2017/10/popular/2.html\" rel=\"nofollow\" target=\"_NEW\">\nhttp://postimage.co.nr/2017/10/popular/2.html</a>   <a href=\"\nhttp://postimage.co.nr/2017/10/popular/3.html\" rel=\"nofollow\" target=\"_NEW\">\nhttp://postimage.co.nr/2017/10/popular/3.html</a>   <a href=\"\nhttp://postimage.co.nr/2017/10/popular/4.html\" rel=\"nofollow\" target=\"_NEW\">\nhttp://postimage.co.nr/2017/10/popular/4.html</a>   <a href=\"\nhttp://postimage.co.nr/2017/10/popular/5.html\" rel=\"nofollow\" target=\"_NEW\">\nhttp://postimage.co.nr/2017/10/popular/5.html</a>   <a href=\"\nhttp://postimage.co.nr/2017/10/popular/6.html\" rel=\"nofollow\" target=\"_NEW\">\nhttp://postimage.co.nr/2017/10/popular/6.html</a>   <a href=\"\nhttp://postimage.co.nr/2017/10/popular/7.html\" rel=\"nofollow\" target=\"_NEW\">\nhttp://postimage.co.nr/2017/10/popular/7.html</a>   <a href=\"\nhttp://postimage.co.nr/2017/10/popular/8.html\" rel=\"nofollow\" target=\"_NEW\">\nhttp://postimage.co.nr/2017/10/popular/8.html</a>   <a href=\"\nhttp://postimage.co.nr/2017/10/popular/9.html\" rel=\"nofollow\" target=\"_NEW\">\nhttp://postimage.co.nr/2017/10/popular/9.html</a>   <a href=\"\nhttp://postimage.co.nr/2017/10/popular/10.html\" rel=\"nofollow\" target=\"_NEW\">\nhttp://postimage.co.nr/2017/10/popular/10.html</a>\r\n\r\nFile size                                : 1.07 GiB\r\nDuration                                 : 2 h 12 min\r\nOverall bit rate                         : 1 154 kb/s\r\nMovie name                               : IT 2017 Movies HC 720p HDRip XviD AAC &#x263B;rDX&#x263B;\r\n\r\nVideo\r\nID                                       : 1\r\nFormat                                   : AVC\r\nFormat/Info                              : Advanced Video Codec\r\nFormat profile                           : <a href=\"/cdn-cgi/l/email-protection\" class=\"__cf_email__\" data-cfemail=\"92dafbf5fad2dea6bca3\">[email&#xA0;protected]</a>\r\nFormat settings, CABAC                   : Yes\r\nFormat settings, ReFrames                : 5 frames\r\nCodec ID                                 : V_MPEG4/ISO/AVC\r\nDuration                                 : 2 h 12 min\r\nBit rate                                 : 1 025 kb/s\r\nWidth                                    : 1 280 pixels\r\nHeight                                   : 534 pixels\r\nDisplay aspect ratio                     : 2.40:1\r\nFrame rate mode                          : Constant\r\nFrame rate                               : 30.000 FPS\r\nColor space                              : YUV\r\nChroma subsampling                       : 4:2:0\r\nBit depth                                : 8 bits\r\nScan type                                : Progressive\r\nBits/(Pixel*Frame)                       : 0.050\r\nStream size                              : 950 MiB (87%)\r\nTitle                                    : &#x263B;rDX&#x263B;\r\nWriting library                          : XviD\r\n\r\nAudio\r\nID                                       : 2\r\nFormat                                   : MPEG Audio\r\nFormat version                           : Version 1\r\nFormat profile                           : Layer 3\r\nMode                                     : Joint stereo\r\nMode extension                           : MS Stereo\r\nCodec ID                                 : A_MPEG/L3\r\nCodec ID/Hint                            : MP3\r\nDuration                                 : 2 h 12 min\r\nBit rate mode                            : Constant\r\nBit rate                                 : 128 kb/s\r\nChannel(s)                               : 2 channels\r\nSampling rate                            : 48.0 kHz\r\nCompression mode                         : Lossy\r\nStream size                              : 121 MiB (11%)\r\nTitle                                    : &#x263B;rDX&#x263B;\r\nDefault                                  : Yes\r\nForced                                   : No","last_updated":"2017-10-04T12:06:17.891Z","parsed":{"xt":"urn:btih:fe902c46e59e3f9ec567985cfabc73401cdb6f24","dn":"IT 2017 Movies HC 720p HDRip XviD AAC with Sample ☻rDX☻","tr":["udp://exodus.desync.com:6969","udp://open.demonii.com:1337","udp://tracker.coppersurfer.tk:6969","udp://tracker.leechers-paradise.org:6969","udp://zer0day.ch:1337"],"infoHash":"fe902c46e59e3f9ec567985cfabc73401cdb6f24","infoHashBuffer":{"type":"Buffer","data":[254,144,44,70,229,158,63,158,197,103,152,92,250,188,115,64,28,219,111,36]},"name":"IT 2017 Movies HC 720p HDRip XviD AAC with Sample ☻rDX☻","announce":["udp://exodus.desync.com:6969","udp://open.demonii.com:1337","udp://tracker.coppersurfer.tk:6969","udp://tracker.leechers-paradise.org:6969","udp://zer0day.ch:1337"],"urlList":[]}}